<svg width="19" height="21" viewBox="0 0 19 21" fill="none" xmlns="http://www.w3.org/2000/svg">
<path d="M15.1673 6.66667C16.7321 6.66667 18.0007 5.39814 18.0007 3.83333C18.0007 2.26853 16.7321 1 15.1673 1C13.6025 1 12.334 2.26853 12.334 3.83333C12.334 5.39814 13.6025 6.66667 15.1673 6.66667Z" stroke="#0A354D" stroke-width="1.6" stroke-linecap="round" stroke-linejoin="round"/>
<path d="M3.83333 13.2778C5.39814 13.2778 6.66667 12.0093 6.66667 10.4445C6.66667 8.87967 5.39814 7.61115 3.83333 7.61115C2.26853 7.61115 1 8.87967 1 10.4445C1 12.0093 2.26853 13.2778 3.83333 13.2778Z" stroke="#0A354D" stroke-width="1.6" stroke-linecap="round" stroke-linejoin="round"/>
<path d="M15.1673 19.889C16.7321 19.889 18.0007 18.6204 18.0007 17.0556C18.0007 15.4908 16.7321 14.2223 15.1673 14.2223C13.6025 14.2223 12.334 15.4908 12.334 17.0556C12.334 18.6204 13.6025 19.889 15.1673 19.889Z" stroke="#0A354D" stroke-width="1.6" stroke-linecap="round" stroke-linejoin="round"/>
<path d="M6.2793 11.8706L12.7299 15.6295" stroke="#0A354D" stroke-width="1.6" stroke-linecap="round" stroke-linejoin="round"/>
<path d="M12.7204 5.25946L6.2793 9.01835" stroke="#0A354D" stroke-width="1.6" stroke-linecap="round" stroke-linejoin="round"/>
</svg>
